<svg id="Group_9" data-name="Group 9" xmlns="http://www.w3.org/2000/svg" width="350" height="350" viewBox="0 0 550 450">
  <g id="myApp" transform="translate(0 0)">
    <path id="Path_7" data-name="Path 7" d="M425.013,748.746c0,6.877-57.808,7.61-128.957,12.453-71.082,4.838-128.957-5.575-128.957-12.453s58.141-20.716,128.957-12.453C367.2,744.595,425.013,741.869,425.013,748.746Z" transform="translate(-167.099 -312.438)" fill="#e6e6e6"/>
    <path id="Path_8" data-name="Path 8" d="M850.463,124.769H697.613c-15.192,0-28.357,11.464-31.7,27.6L588.682,525.446a30.607,30.607,0,0,0,4.711,23.6A25.7,25.7,0,0,0,613.008,560.3l157.133,8.431c17.405.934,32.746-12.337,35.848-31.012L849.8,273.953l3.26,1.014,8.381-49.994-3.355-.913,12.229-73.627a23.2,23.2,0,0,0-4.386-17.915,19.372,19.372,0,0,0-15.466-7.75Z" transform="translate(-320.634 -124.768)" fill="#3f3d56"/>
    <path id="Path_9" data-name="Path 9" d="M726.613,136.395H708.771c-10.557,0-19.689,8.009-21.939,19.242L612.7,525.666a16.217,16.217,0,0,0,2.478,12.343,13.645,13.645,0,0,0,10.207,6.007L782.008,555.2c9.148.653,17.288-6.278,18.913-16.1L864.179,156.63a18.309,18.309,0,0,0-3.424-14.071,15.3,15.3,0,0,0-12.109-6.164H831.719a7.583,7.583,0,0,0-7.193,6h0a6.7,6.7,0,0,1-6.35,5.3H737.821c-5.874,0-10.757-4.925-11.208-11.3Z" transform="translate(-329.512 -128.351)" fill="#fff"/>
    <path id="Path_10" data-name="Path 10" d="M528.288,407.5l13.81,29.774,41.292,20.444c4.41,8.116,18.422,8.737,19.441,3.489,1.143-5.888-17.016-15.364-17.016-15.364L551.278,420.4l-3.022-21.9Z" transform="translate(-298.841 -209.129)" fill="#a0616a"/>
    <path id="Path_11" data-name="Path 11" d="M362.291,575.559l-2.547,22.188,14.772,1.11,1.528-23.3Z" transform="translate(-131.215 -177.378)" fill="#a0616a"/>
    <path id="Path_12" data-name="Path 12" d="M528.749,722.881a43.067,43.067,0,0,1-3.645-4.854c-2.117-3.19-4,13.175-4,13.175s-2.037,6.656-1.528,9.985,12.225,3.328,14.262,2.773,12.225,0,12.225,0h15.281c13.243-6.656,0-11.094,0-11.094-4.075-.555-17.828-14.423-17.828-14.423l-3.056-6.1c-2.037-.555-4.075,7.766-4.075,7.766Z" transform="translate(-295.635 -305.84)" fill="#2f2e41"/>
    <path id="Path_13" data-name="Path 13" d="M302.154,575.957l-2.547,22.189,14.772,1.11,1.528-23.3Z" transform="translate(-109.28 -177.499)" fill="#a0616a"/>
    <path id="Path_14" data-name="Path 14" d="M468.612,723.281a43.063,43.063,0,0,1-3.645-4.854c-2.117-3.19-4,13.175-4,13.175s-2.037,6.1-1.528,9.43,12.225,3.328,14.262,2.773,12.225.555,12.225.555h15.281c13.243-6.657,0-11.094,0-11.094-4.075-.555-17.828-14.423-17.828-14.423l-3.056-6.1c-2.037-.555-4.075,7.766-4.075,7.766Z" transform="translate(-273.7 -305.962)" fill="#2f2e41"/>
    <path id="Path_15" data-name="Path 15" d="M485.77,493.307c-2.037,2.774-1.019,12.2-1.019,12.2s-3.566,30.509-2.037,33.283-1.019,4.992-2.547,8.875-3.056,13.313-3.056,13.313c-8.659,7.766-8.15,43.267-8.15,43.267L465.9,635.868c1.019,3.328,15.281,3.883,17.318,3.328s8.15-50.479,8.15-50.479l13.753-28.29s-1.018,75.441-1.018,78.769,13.753,1.664,16.809,1.664,3.056-55.471,3.056-55.471l3.056-14.422,16.3-66.011V497.19l-2.547-3.883S487.807,490.533,485.77,493.307Z" transform="translate(-276.087 -237.964)" fill="#2f2e41"/>
    <ellipse id="Ellipse_1" data-name="Ellipse 1" cx="15.79" cy="17.196" rx="15.79" ry="17.196" transform="translate(216.305 95.03)" fill="#a0616a"/>
    <path id="Path_16" data-name="Path 16" d="M532.893,298.615c-3.2,7.762-1.305,18.6,5.094,30.509l-25.977-13.313,4.075-3.883-1.019-11.094Z" transform="translate(-292.903 -178.345)" fill="#a0616a"/>
    <path id="Path_17" data-name="Path 17" d="M521.78,322.3c3.4,2.2,5.437,6.249,6.6,10.367a106.137,106.137,0,0,1,3.877,23.472l1.234,23.851,15.281,63.237c-13.243,12.2-20.884,9.43-38.712-.555S490.2,446,490.2,446s-1.528-.555,0-2.219,0,0-1.528-1.664,0,0,.509-1.664,0-.555-.509-1.109,2.037-5.547,2.037-5.547l-4.075-41.6-5.094-58.8c6.112-8.321,23.431-15.532,23.431-15.532l15.79,12.2c5.094,2.219,1.019-6.657,1.019-6.657Z" transform="translate(-281.79 -184.276)" fill="#0e5f95"/>
    <path id="Path_18" data-name="Path 18" d="M467.14,391.223,465.1,424.505,491.08,465c0,9.43,4.584,11.649,4.584,11.649a75.769,75.769,0,0,0,4.584-9.43c2.547-6.1-1.528-11.094-1.528-11.094l-17.828-41.049,7.641-20.524Z" transform="translate(-275.794 -206.883)" fill="#a0616a"/>
    <path id="Path_19" data-name="Path 19" d="M476.093,340.2c-8.659,3.328-10.187,39.385-10.187,39.385,10.187-6.1,22.412,3.883,22.412,3.883s2.547-9.43,5.6-21.634a22.627,22.627,0,0,0-4.075-19.97S484.752,336.872,476.093,340.2Z" transform="translate(-276.087 -190.808)" fill="#0e5f95"/>
    <path id="Path_20" data-name="Path 20" d="M508.216,281.609c2.01-1.751,4.752,1.432,4.752,1.432l1.608-15.762s10.051,1.314,16.483-.438,7.438,6.348,7.438,6.348a61.2,61.2,0,0,0,.2-9.851c-.4-3.94-5.628-7.881-14.875-10.508s-14.071,8.757-14.071,8.757C503.32,265.09,506.206,283.361,508.216,281.609Z" transform="translate(-290.638 -164.113)" fill="#2f2e41"/>
    <path id="Path_21" data-name="Path 21" d="M836.079,415.439a1.315,1.315,0,0,0,1.311-1.133l35.12-208.179a1.476,1.476,0,0,0-.269-1.129,1.234,1.234,0,0,0-.966-.5l-159.783-2.027h-.015a1.306,1.306,0,0,0-1.24,1.081l-41.4,201.422a1.481,1.481,0,0,0,.229,1.14,1.243,1.243,0,0,0,.949.543Z" transform="translate(-350.094 -148.714)" fill="#e6e6e6"/>
    <path id="Path_22" data-name="Path 22" d="M712.018,529.531a.648.648,0,0,0-.618.535l-1.476,6.888a.741.741,0,0,0,.107.568.624.624,0,0,0,.466.28l83.365,6.453a.653.653,0,0,0,.669-.558l1.419-7.969a.738.738,0,0,0-.122-.556.621.621,0,0,0-.464-.266l-83.308-5.372Z" transform="translate(-365.086 -249.508)" fill="#e6e6e6"/>
    <path id="Path_23" data-name="Path 23" d="M811.163,580.023a.646.646,0,0,0,.668-.524l1.807-7.986a.744.744,0,0,0-.1-.573.625.625,0,0,0-.47-.283L706.6,562.548a.633.633,0,0,0-.653.493l-1.877,6.9a.742.742,0,0,0,.085.588.626.626,0,0,0,.473.3Z" transform="translate(-362.948 -259.685)" fill="#e6e6e6"/>
    <path id="Path_24" data-name="Path 24" d="M802.163,617.022a.643.643,0,0,0,.668-.524l1.806-7.985a.742.742,0,0,0-.1-.573.624.624,0,0,0-.469-.283L697.6,599.547a.633.633,0,0,0-.653.493l-1.877,6.9a.741.741,0,0,0,.085.588.626.626,0,0,0,.473.3Z" transform="translate(-359.665 -271.087)" fill="#e6e6e6"/>
    <path id="Path_25" data-name="Path 25" d="M748.935,677.59a.635.635,0,0,0,.676-.522l3.82-16.639a.743.743,0,0,0-.1-.571.626.626,0,0,0-.464-.287l-65.378-5.988a.656.656,0,0,0-.673.539l-3.258,15.969a.742.742,0,0,0,.107.557.627.627,0,0,0,.454.282Z" transform="translate(-355.469 -287.742)" fill="#0e5f95"/>
  </g>
</svg>
